HIERARCHY
ROOT hip
{
	OFFSET 0.000000 0.000000 0.000000
	CHANNELS 6 Xposition Yposition Zposition Xrotation Zrotation Yrotation 
	JOINT abdomen
	{
		OFFSET 0.000000 3.422050 0.000000
		CHANNELS 3 Xrotation Zrotation Yrotation 
		JOINT chest
		{
			OFFSET 0.000000 8.486693 -0.684411
			CHANNELS 3 Xrotation Zrotation Yrotation 
			JOINT neck
			{
				OFFSET 0.000000 10.266162 -0.273764
				CHANNELS 3 Xrotation Zrotation Yrotation 
				JOINT head
				{
					OFFSET 0.000000 3.148285 0.000000
					CHANNELS 3 Xrotation Zrotation Yrotation 
					End Site
					{
						OFFSET 0.000000 3.148289 0.000000
					}
				}
			}
			JOINT lCollar
			{
				OFFSET 3.422053 6.707223 -0.821293
				CHANNELS 3 Yrotation Zrotation Xrotation 
				JOINT lShldr
				{
					OFFSET 3.285171 0.000000 0.000000
					CHANNELS 3 Zrotation Yrotation Xrotation 
					JOINT lForeArm
					{
						OFFSET 10.129278 0.000000 0.000000
						CHANNELS 3 Yrotation Zrotation Xrotation 
						JOINT lHand
						{
							OFFSET 8.486692 0.000000 0.000000
							CHANNELS 3 Zrotation Yrotation Xrotation 
							End Site
							{
								OFFSET 4.106464 0.000000 0.000000
							}
						}
					}
				}
			}
			JOINT rCollar
			{
				OFFSET -3.558935 6.707223 -0.821293
				CHANNELS 3 Yrotation Zrotation Xrotation 
				JOINT rShldr
				{
					OFFSET -3.148289 0.000000 0.000000
					CHANNELS 3 Zrotation Yrotation Xrotation 
					JOINT rForeArm
					{
						OFFSET -10.266159 0.000000 0.000000
						CHANNELS 3 Yrotation Zrotation Xrotation 
						JOINT rHand
						{
							OFFSET -8.349810 0.000000 0.000000
							CHANNELS 3 Zrotation Yrotation Xrotation 
							End Site
							{
								OFFSET -4.106464 0.000000 0.000000
							}
						}
					}
				}
			}
		}
	}
	JOINT lThigh
	{
		OFFSET 5.338403 -1.642589 1.368821
		CHANNELS 3 Xrotation Zrotation Yrotation 
		JOINT lShin
		{
			OFFSET -2.053232 -20.121670 0.000000
			CHANNELS 3 Xrotation Zrotation Yrotation 
			JOINT lFoot
			{
				OFFSET 0.000000 -19.300380 -1.231939
				CHANNELS 3 Xrotation Yrotation Zrotation 
				End Site
				{
					OFFSET 0.000000 -2.463878 4.653993
				}
			}
		}
	}
	JOINT rThigh
	{
		OFFSET -5.338403 -1.642589 1.368821
		CHANNELS 3 Xrotation Zrotation Yrotation 
		JOINT rShin
		{
			OFFSET 2.053232 -20.121670 0.000000
			CHANNELS 3 Xrotation Zrotation Yrotation 
			JOINT rFoot
			{
				OFFSET 0.000000 -19.300380 -1.231939
				CHANNELS 3 Xrotation Yrotation Zrotation 
				End Site
				{
					OFFSET 0.000000 -2.463878 4.653993
				}
			}
		}
	}
}
MOTION
Frames: 14
Frame Time: 0.022176
0.000000 43.528500 0.000000 0.000000 0.000000 0.000000 0.000000 0.000000 0.000000 0.000000 0.000000 0.000000 0.000000 0.000000 0.000000 0.000000 0.000000 0.000000 0.000000 0.000000 0.000000 0.000000 0.000000 0.000000 0.000000 0.000000 0.000000 0.000000 0.000000 0.000000 0.000000 0.000000 0.000000 0.000000 0.000000 0.000000 0.000000 0.000000 0.000000 0.000000 0.000000 0.000000 0.000000 0.000000 0.000000 0.000000 0.000000 0.000000 0.000000 0.000000 0.000000 0.000000 0.000000 0.000000 0.000000 0.000000 0.000000 0.000000 0.000000 0.000000 
-3.487345 15.242290 23.552315 104.995956 0.000001 -0.000001 -0.977255 -0.070953 -0.322895 -27.782030 -0.686635 -1.690975 -31.002779 0.000000 0.000000 -15.001697 0.000000 0.000000 -25.000879 -1.946286 -9.758155 7.349232 -20.098469 -1.209809 -48.991905 39.352386 10.317445 9.386642 1.334885 -7.744679 24.463387 2.555433 -10.037226 -8.066760 21.260559 -1.379168 49.583992 -33.752777 10.320180 -9.538479 -2.826618 -7.336131 -108.118591 47.670551 -5.543396 78.263496 7.830039 -12.098824 61.065361 -38.851242 27.220594 -108.093834 -47.687401 5.497102 78.261360 -7.870464 12.093422 61.040234 38.834629 -27.236032 
-3.487345 15.136493 23.552315 103.889565 0.000001 -0.000001 -1.642809 -0.070910 -0.322986 -24.975969 -0.686464 -1.691000 -31.613083 0.000000 0.000000 -15.445882 0.000000 0.000000 -25.097452 -1.083729 -10.128144 7.349232 -20.098471 -1.209809 -48.367908 39.138245 9.921625 9.996754 1.389368 -8.112585 24.623922 1.637168 -10.441247 -7.986563 21.012527 -1.364209 49.000996 -33.560059 9.995831 -10.103413 -2.907635 -7.706205 -107.416016 48.806751 -5.029211 78.263496 7.830040 -12.098825 62.011303 -38.764648 29.040834 -107.407730 -48.855911 4.966841 78.261360 -7.870464 12.093422 62.026245 38.740448 -29.112965 
-3.487345 15.030695 23.552315 102.781509 0.000001 -0.000001 -2.308722 -0.070868 -0.323078 -22.141417 -0.686289 -1.691017 -32.223682 0.000000 0.000000 -15.890180 0.000000 0.000000 -25.188534 -0.219628 -10.497015 7.349232 -20.098471 -1.209809 -47.747513 38.920712 9.529899 10.606908 1.447801 -8.480135 24.778120 0.716639 -10.843065 -7.906563 20.764460 -1.349645 48.420418 -33.364532 9.674460 -10.668182 -2.992341 -8.075708 -106.679840 49.940674 -4.480384 78.263496 7.830039 -12.098825 62.954319 -38.654392 30.861101 -106.686897 -50.022270 4.400957 78.261360 -7.870464 12.093423 63.008968 38.620827 -30.989809 
-3.487345 14.924897 23.552315 101.671989 0.000001 -0.000001 -2.974951 -0.070827 -0.323171 -19.281464 -0.686112 -1.691025 -32.834507 0.000000 0.000000 -16.334566 0.000000 0.000000 -25.274137 0.645865 -10.864884 7.349232 -20.098471 -1.209809 -47.130768 38.699837 9.142302 11.217031 1.510179 -8.847254 24.926006 -0.205964 -11.242820 -7.826753 20.516348 -1.335474 47.842308 -33.166264 9.356111 -11.232734 -3.080725 -8.444576 -105.907257 51.071632 -3.894117 78.263504 7.830040 -12.098825 63.892860 -38.520531 32.679752 -105.928337 -51.185745 3.796478 78.261375 -7.870465 12.093423 63.986641 38.475807 -32.864727 
-3.487345 14.819099 23.552315 100.561226 0.000001 -0.000001 -3.641452 -0.070787 -0.323264 -16.399374 -0.685934 -1.691024 -33.445549 0.000000 0.000000 -16.779034 0.000000 0.000000 -25.354258 1.512597 -11.231861 7.349231 -20.098467 -1.209809 -46.517696 38.475685 8.758866 11.827051 1.576492 -9.213876 25.067602 -1.130448 -11.640635 -7.747133 20.268206 -1.321694 47.266685 -32.965267 9.040802 -11.796999 -3.172774 -8.812749 -105.095215 52.198891 -3.267355 78.263496 7.830039 -12.098823 64.825401 -38.363167 34.495159 -105.128799 -52.345604 3.150124 78.261360 -7.870464 12.093421 64.957565 38.305515 -34.735924 
-3.487345 14.713303 23.552315 99.449402 0.000001 -0.000000 -4.308177 -0.070749 -0.323357 -13.498574 -0.685755 -1.691015 -34.056759 0.000000 0.000000 -17.223572 0.000000 0.000000 -25.428917 2.380417 -11.598064 7.349231 -20.098469 -1.209809 -45.908337 38.248302 8.379623 12.436901 1.646731 -9.579931 25.202944 -2.056622 -12.036656 -7.667696 20.020031 -1.308301 46.693584 -32.761589 8.728564 -12.360923 -3.268474 -9.180167 -104.240303 53.321682 -2.596713 78.263496 7.830039 -12.098824 65.750435 -38.182499 36.305744 -104.284599 -53.501003 2.458253 78.261360 -7.870464 12.093422 65.920128 38.110188 -36.601677 
-3.487345 14.607505 23.552315 98.336754 0.000000 -0.000000 -4.975082 -0.070711 -0.323451 -10.582623 -0.685575 -1.690996 -34.668114 0.000000 0.000000 -17.668159 0.000000 0.000000 -25.498114 3.249169 -11.963607 7.349232 -20.098469 -1.209809 -45.302681 38.017723 8.004590 13.046503 1.720884 -9.945344 25.332054 -2.984294 -12.431016 -7.588444 19.771832 -1.295294 46.123032 -32.555283 8.419424 -12.924442 -3.367808 -9.546769 -103.338837 54.439186 -1.878450 78.263496 7.830039 -12.098824 66.666496 -37.978737 38.109936 -103.391701 -54.651070 1.716817 78.261360 -7.870464 12.093422 66.872681 37.890083 -38.460247 
-3.487345 14.501707 23.552315 97.223465 0.000000 -0.000000 -5.642126 -0.070675 -0.323545 -7.655215 -0.685396 -1.690967 -35.279575 0.000000 0.000000 -18.112791 0.000000 0.000000 -25.561846 4.118701 -12.328605 7.349232 -20.098469 -1.209809 -44.700794 37.784031 7.633796 13.655791 1.798936 -10.310049 25.454941 -3.913270 -12.823853 -7.509372 19.523609 -1.282672 45.555035 -32.346355 8.113404 -13.487498 -3.470757 -9.912492 -102.386589 55.550461 -1.108425 78.263496 7.830039 -12.098825 67.572189 -37.752216 39.906239 -102.445580 -55.794838 0.921323 78.261360 -7.870464 12.093423 67.813683 37.645546 -40.309990 
-3.487344 14.395909 23.552315 96.109756 0.000000 -0.000000 -6.309257 -0.070639 -0.323640 -4.720114 -0.685218 -1.690930 -35.891098 0.000000 0.000000 -18.557446 0.000000 0.000000 -25.620104 4.988856 -12.693169 7.349232 -20.098469 -1.209809 -44.102688 37.547272 7.267267 14.264695 1.880872 -10.673979 25.571619 -4.843359 -13.215301 -7.430476 19.275362 -1.270431 44.989632 -32.134872 7.810525 -14.050030 -3.577303 -10.277279 -101.378960 56.654530 -0.282042 78.263496 7.830039 -12.098824 68.466187 -37.503304 41.693230 -101.441223 -56.931282 0.066749 78.261360 -7.870464 12.093424 68.741661 37.377010 -42.149342 
-3.487344 14.290112 23.552315 94.995834 0.000000 0.000000 -6.976436 -0.070605 -0.323735 -1.781151 -0.685042 -1.690884 -36.502659 0.000000 0.000000 -19.002117 0.000000 0.000000 -25.672890 5.859484 -13.057424 7.349232 -20.098471 -1.209809 -43.508358 37.307484 6.905006 14.873145 1.966674 -11.037065 25.682106 -5.774367 -13.605497 -7.351757 19.027103 -1.258571 44.426838 -31.920872 7.510812 -14.611981 -3.687426 -10.641071 -100.310936 57.750343 0.605792 78.263504 7.830040 -12.098825 69.347176 -37.232395 43.469509 -100.373093 -58.059273 -0.852479 78.261375 -7.870465 12.093422 69.655243 37.084969 -43.976810 
-3.487344 14.184314 23.552313 93.881905 -0.000000 0.000000 -7.643613 -0.070572 -0.323830 1.157813 -0.684869 -1.690829 -37.114220 0.000000 0.000000 -19.446789 0.000000 0.000000 -25.720190 6.730428 -13.421480 7.349232 -20.098469 -1.209809 -42.917839 37.064739 6.547041 15.481070 2.056324 -11.399235 25.786402 -6.706102 -13.994578 -7.273206 18.778822 -1.247088 43.866684 -31.704393 7.214281 -15.173291 -3.801102 -11.003812 -99.176758 58.836720 1.560733 78.263496 7.830039 -12.098823 70.213966 -36.939987 45.233772 -99.234833 -59.177509 -1.842607 78.261360 -7.870463 12.093420 70.553085 36.769955 -45.790955 
-3.487344 14.078516 23.552313 92.768204 -0.000000 0.000000 -8.310744 -0.070540 -0.323926 4.092912 -0.684699 -1.690764 -37.725758 0.000000 0.000000 -19.891438 0.000000 0.000000 -25.761990 7.601533 -13.785459 7.349232 -20.098469 -1.209809 -42.331150 36.819096 6.193379 16.088402 2.149799 -11.760427 25.884506 -7.638371 -14.382683 -7.194824 18.530535 -1.235981 43.309177 -31.485468 6.920949 -15.733903 -3.918307 -11.365439 -97.970192 59.912357 2.589042 78.263496 7.830039 -12.098824 71.065445 -36.626610 46.984810 -98.019600 -60.284698 -2.910580 78.261360 -7.870463 12.093421 71.434021 36.432587 -47.590492 
-3.487344 13.972718 23.552313 91.654915 -0.000000 0.000000 -8.977788 -0.070509 -0.324022 7.020323 -0.684533 -1.690692 -38.337212 0.000000 0.000000 -20.336067 0.000000 0.000000 -25.798275 8.472646 -14.149476 7.349232 -20.098469 -1.209809 -41.748283 36.570591 5.844037 16.695070 2.247077 -12.120570 25.976423 -8.570981 -14.769953 -7.116607 18.282234 -1.225248 42.754349 -31.264153 6.630834 -16.293764 -4.039018 -11.725901 -96.684288 60.975872 3.697687 78.263496 7.830039 -12.098824 71.900558 -36.292828 48.721462 -96.719612 -61.379276 -4.064134 78.261360 -7.870464 12.093422 72.296913 36.073521 -49.374187 
